<svg width="90" height="87" viewBox="0 0 90 87" fill="none" xmlns="http://www.w3.org/2000/svg">
<path d="M3.14062 22.3047V7.65625H0.210938V2.77344H20.2305V7.65625H8.31641V10.0977H19.7422V14.9805H8.31641V17.4219H21.6953V22.3047H3.14062ZM40.7383 25.7227V39.3945H35.5625V30.6055H3.62891V25.7227H40.7383ZM32.4375 22.793H27.2617V13.2227C27.0339 13.8737 26.6432 14.3945 26.0898 14.7852C25.569 15.1758 24.918 15.3711 24.1367 15.3711C23.1276 15.3711 22.3138 15.0618 21.6953 14.4434C21.1094 13.7923 20.8164 12.9948 20.8164 12.0508C20.8164 11.1068 21.1094 10.3255 21.6953 9.70703C22.3138 9.05599 23.1276 8.73047 24.1367 8.73047C24.918 8.73047 25.569 8.92578 26.0898 9.31641C26.6432 9.70703 27.0339 10.2279 27.2617 10.8789V0.820312H32.4375V22.793ZM41.2266 22.793H36.0508V0.820312H41.2266V22.793Z" fill="white"/>
<path d="M89.4688 38.418H84.293V1.79688H89.4688V38.418ZM74.332 5.70312V21.3281H57.0469V28.1641H75.3086V33.0469H51.8711V16.4453H69.1562V10.5859H51.8711V5.70312H74.332Z" fill="white"/>
<path d="M35.5625 76.4336V74.6758H3.62891V70.2812H12.1738C11.8809 70.0208 11.6367 69.7279 11.4414 69.4023C11.2786 69.0768 11.1973 68.7188 11.1973 68.3281C11.1973 67.8724 11.3112 67.4655 11.5391 67.1074H1.1875V62.4688H34.3418V59.9297H4.84961V55.5352H34.3418V53.0938H4.84961V48.5527H39.5176V62.4688H43.1797V67.1074H32.8281C33.056 67.5632 33.1699 67.9701 33.1699 68.3281C33.1699 69.1094 32.8281 69.7604 32.1445 70.2812H40.7383V80.7305H8.80469V82.4883H40.7383V86.8828H3.62891V76.4336H35.5625ZM26.8223 68.3281C26.8223 67.8724 26.9362 67.4655 27.1641 67.1074H17.2031C17.431 67.5632 17.5449 67.9701 17.5449 68.3281C17.5449 69.1094 17.2031 69.7604 16.5195 70.2812H27.7988C27.5059 70.0208 27.2617 69.7279 27.0664 69.4023C26.9036 69.0768 26.8223 68.7188 26.8223 68.3281Z" fill="white"/>
<path d="M82.6328 58.4648C82.6328 59.4414 82.3073 60.2715 81.6562 60.9551C81.0052 61.6387 80.1589 61.9805 79.1172 61.9805C78.0755 61.9805 77.2292 61.6387 76.5781 60.9551C75.9271 60.2715 75.6016 59.4414 75.6016 58.4648C75.6016 57.4883 75.9271 56.6582 76.5781 55.9746C77.2292 55.291 78.0755 54.9492 79.1172 54.9492C80.1589 54.9492 81.0052 55.291 81.6562 55.9746C82.3073 56.6582 82.6328 57.4883 82.6328 58.4648ZM52.3594 86.3945V72.2344H89.4688V86.3945H52.3594ZM57.5352 77.0195V81.6094H84.293V77.0195H57.5352ZM73.3555 49.7734V61.3945H57.0469V64.0312H74.332V68.8164H51.8711V56.707H68.1797V54.5586H51.8711V49.7734H73.3555ZM89.4688 69.3047H84.293V47.8203H89.4688V69.3047Z" fill="white"/>
</svg>
